<?xml version="1.0" encoding="utf-8"?>
<!-- Generator: Adobe Illustrator 23.0.3, SVG Export Plug-In . SVG Version: 6.00 Build 0)  -->
<svg version="1.1" id="Layer_1" xmlns="http://www.w3.org/2000/svg" xmlns:xlink="http://www.w3.org/1999/xlink" x="0px" y="0px"
	 viewBox="0 0 200 60" enable-background="new 0 0 200 60" xml:space="preserve">
<g>
	<g>
		<path fill-rule="evenodd" clip-rule="evenodd" fill="#FFFFFF" d="M136.7,8.4c-12,0-21.7,9.7-21.7,21.7c0,10.9,8,19.9,18.5,21.4
			V40.3c-4.4-1.4-7.5-5.4-7.5-10.2c0-5.9,4.8-10.7,10.7-10.7c5.9,0,10.7,4.8,10.7,10.7c0,4.8-3.1,8.8-7.4,10.2v11.2
			c10.4-1.6,18.4-10.6,18.4-21.4C158.4,18.1,148.7,8.4,136.7,8.4z"/>
		<path fill-rule="evenodd" clip-rule="evenodd" fill="#FFFFFF" d="M58.4,24.2c0-1.4,0.5-2.6,1.5-3.6c1-0.9,2.2-1.4,3.7-1.4h11.6
			V8.2H63c-5,0-8.8,1.3-11.5,4c-2.7,2.7-4.1,6.5-4.1,11.4v12.6c0,5,1.4,8.8,4.1,11.4c2.7,2.6,6.5,4,11.5,4h12.2v-11H63.6
			c-1.4,0-2.6-0.5-3.6-1.5c-1-1-1.5-2.2-1.5-3.6V24.2z"/>
		<path fill-rule="evenodd" clip-rule="evenodd" fill="#FFFFFF" d="M108.4,8.2H81.9c-0.1,0-0.3,0-0.4,0v10.9c0.1,0,0.2,0,0.4,0h15.2
			L81.6,37.6v13.8c0.3,0,0.6,0.1,0.9,0.1h26c1.6,0,3-0.5,4.1-1.6c1.1-1.1,1.6-2.3,1.6-3.9c0-1.5-0.5-2.8-1.6-3.9
			c-1.1-1.1-2.5-1.6-4.1-1.6H93.4l19.4-22.9c0.9-1,1.3-2.3,1.3-3.7c0-1.7-0.5-3.1-1.6-4C111.4,8.8,110,8.2,108.4,8.2z"/>
		<path fill-rule="evenodd" clip-rule="evenodd" fill="#FFFFFF" d="M63.5,24.4h10.3c1.5,0,2.8,0.5,3.9,1.6c1.1,1,1.7,2.3,1.7,3.8
			c0,1.6-0.5,2.9-1.6,3.9c-1.1,1-2.4,1.6-3.9,1.6H63.5V24.4z"/>
		<path fill-rule="evenodd" clip-rule="evenodd" fill="#FFFFFF" d="M161.8,13.1c0-1.2,0.6-2.4,1.9-3.4c1.2-1,2.5-1.5,3.8-1.5
			c1.3,0,2.5,0.5,3.6,1.5c1.1,1,1.7,2.2,1.7,3.4v23c0,1.2,0.4,2.3,1.3,3.1c0.9,0.9,1.9,1.3,3.2,1.3h8.6c1.4,0,2.8,0.6,3.8,1.7
			c1,1,1.5,2.4,1.5,3.8c0,1.3-0.6,2.9-1.6,3.9c-1.1,1.1-2.3,1.6-3.7,1.6h-10.6c-4.2,0-7.5-1.2-9.8-3.5c-2.3-2.3-3.5-5.6-3.5-9.8
			V13.1z"/>
		<path fill-rule="evenodd" clip-rule="evenodd" fill="#FFFFFF" d="M14.3,8.2c-1.4,0-2.8,0.6-3.8,1.6c-1,1-1.6,2.5-1.6,3.9
			c0,1.3,0.5,2.8,1.6,3.9c0.9,1,2.3,1.6,3.7,1.6h7.9v27.4c0,1.2,0.7,2.7,1.6,3.7c1,1,2.4,1.6,3.9,1.6c1.4,0,2.8-0.6,3.9-1.6
			c0.9-0.9,1.6-2.2,1.6-3.6V19.2h8.2c0.9,0,2.4-0.6,3.4-1.6c1-0.9,1.6-2.6,1.6-3.9c0-1.4-0.5-2.8-1.6-3.9c-1-1.1-2.6-1.6-3.5-1.6
			H14.3z"/>
	</g>
</g>
</svg>
