<svg xmlns="http://www.w3.org/2000/svg" width="23.971" height="23.971" viewBox="0 0 23.971 23.971"><defs><style>.a{fill:none;}.b{fill:#fff;}</style></defs><path class="a" d="M0,0H23.971V23.971H0Z"/><path class="b" d="M2.71,3.558a1,1,0,0,0,0,1.408L5.177,7.433A7.379,7.379,0,0,0,5,8.991c0,4.165,4.415,9.908,6.222,12.1a.992.992,0,0,0,1.528,0c.649-.779,1.618-2.008,2.607-3.456L18,20.278a1,1,0,0,0,1.408-1.408L4.118,3.558A1,1,0,0,0,2.71,3.558ZM11.988,2A6.975,6.975,0,0,0,7.244,3.858L10.43,7.044a2.494,2.494,0,0,1,4.055,1.948,2.456,2.456,0,0,1-.559,1.558L17.472,14.1a12.029,12.029,0,0,0,1.508-5.1A6.986,6.986,0,0,0,11.988,2Z" transform="translate(-0.003 -0.002)"/></svg>