<svg xmlns="http://www.w3.org/2000/svg" width="24" height="24" viewBox="0 0 24 24"><defs><style>.a{fill:none;}.b{fill:#fff;}</style></defs><path class="a" d="M0,0H24V24H0Z"/><path class="b" d="M22,3H2A2.006,2.006,0,0,0,0,5V19a2.006,2.006,0,0,0,2,2H22a2,2,0,0,0,1.99-2L24,5A2.006,2.006,0,0,0,22,3ZM8,6A3,3,0,1,1,5,9,3,3,0,0,1,8,6Zm6,12H2V17c0-2,4-3.1,6-3.1S14,15,14,17Zm3.85-4h1.39a.493.493,0,0,1,.4.2l1.1,1.45a.49.49,0,0,1-.05.65l-1.36,1.36a.505.505,0,0,1-.67.04,7.557,7.557,0,0,1-2.38-3.71A7.248,7.248,0,0,1,16,12a7.375,7.375,0,0,1,.28-2,7.513,7.513,0,0,1,2.38-3.71.494.494,0,0,1,.67.04l1.36,1.36a.491.491,0,0,1,.05.65l-1.1,1.45a.479.479,0,0,1-.4.2H17.85a5.918,5.918,0,0,0,0,4.01Z"/></svg>