<svg xmlns="http://www.w3.org/2000/svg" width="24.401" height="24.401" viewBox="0 0 24.401 24.401"><defs><style>.a{fill:none;}.b{fill:#fff;}</style></defs><path class="a" d="M0,0H24.4V24.4H0Z"/><path class="b" d="M19.258,1H9.091A2.039,2.039,0,0,0,7.058,3.033V5.067a1.017,1.017,0,1,0,2.033,0V4.05H19.258V20.318H9.091V19.3a1.017,1.017,0,0,0-2.033,0v2.033a2.039,2.039,0,0,0,2.033,2.033H19.258a2.039,2.039,0,0,0,2.033-2.033V3.033A2.039,2.039,0,0,0,19.258,1ZM7.068,13.679,5.116,11.726a.913.913,0,0,0-1.291,1.291l2.511,2.511a1.013,1.013,0,0,0,1.434,0l5.948-5.948A.913.913,0,0,0,12.426,8.29L7.068,13.679Z" transform="translate(0.059 0.017)"/></svg>