<svg xmlns="http://www.w3.org/2000/svg" width="24.013" height="24.013" viewBox="0 0 24.013 24.013"><defs><style>.a{fill:none;}.b{fill:#fff;}</style></defs><path class="a" d="M0,0H24.013V24.013H0Z"/><path class="b" d="M12.406,2A10.406,10.406,0,1,0,22.812,12.406,10.41,10.41,0,0,0,12.406,2Zm0,3.122A3.122,3.122,0,1,1,9.284,8.243,3.118,3.118,0,0,1,12.406,5.122Zm0,14.776a7.493,7.493,0,0,1-6.243-3.351c.031-2.071,4.162-3.2,6.243-3.2s6.212,1.134,6.243,3.2A7.493,7.493,0,0,1,12.406,19.9Z" transform="translate(-0.399 -0.399)"/></svg>